# xmcd
#
# Track frame offsets:
#	150
#	12725
#	22213
#	35978
#	44465
#	57100
#	68779
#	79296
#	94285
#	108350
#	119852
#	132396
#	142503
#	156595
#	172843
#	181478
#	193693
#	203207
#	214117
#	224182
#
# Disc length: 3171 seconds
#
# Revision: 0
# Processed by: cddbd v1.5.2PL0 Copyright (c) Steve Scherf et al.
# Submitted via: audiograbber 1.83.01
#
DISCID=400c6114
DTITLE=Various Artist - Lonestar Jukebox - Disc 2
DYEAR=1900
DGENRE=
TTITLE0=Johnny Copeland - It's Me
TTITLE1=Floyd Tillman - Slippin' Around
TTITLE2=Roy Head and the Traits - Get Out of My Life, Woman
TTITLE3=Glenn Barber - I Created A Monster
TTITLE4=Freddy Fender - Share Your Love With Me
TTITLE5=Big Walter Price - Git To Gittin'
TTITLE6=Sir Douglas Quintet - Sugar Bee
TTITLE7=Oscar Perry - Heaven Sent Angel
TTITLE8=T-Bone Walker - I Wonder Why
TTITLE9=Ray Frushay  - Cheatin' Traces
TTITLE10=Mickey Gilley - Just Out of Reach (Of My Two Empty Arms)
TTITLE11=B.J. Thomas and the Triumphs - Treasure of Love
TTITLE12=Joe Medwick - Your Sweet Love
TTITLE13=T-Bone Walker - Reconsider Baby
TTITLE14=Moe Bandy - Playboy
TTITLE15=Barbara Lynn - Sugar-Coated Love
TTITLE16=Jimmy Heap and His Melody Makers - Time Changes Everything
TTITLE17=Fiddlin' Frenchie Burke - Cowtown
TTITLE18=Mickey Gilley - Fraulein
TTITLE19=Barbara Lynn - Then You Can Tell Me Goodbye
EXTD=
EXTT0=
EXTT1=
EXTT2=
EXTT3=
EXTT4=
EXTT5=
EXTT6=
EXTT7=
EXTT8=
EXTT9=
EXTT10=
EXTT11=
EXTT12=
EXTT13=
EXTT14=
EXTT15=
EXTT16=
EXTT17=
EXTT18=
EXTT19=
PLAYORDER=
